<svg xmlns="http://www.w3.org/2000/svg" width="140" height="160" viewBox="0 0 140 160">
  <defs>
    <radialGradient id="bodyGrad_1_3" cx="38%" cy="32%" r="60%">
      <stop offset="0%" stop-color="white"/>
      <stop offset="100%" stop-color="rgb(179,207,234)"/>
    </radialGradient>
    <radialGradient id="bumpGrad_1_3" cx="40%" cy="35%" r="60%">
      <stop offset="0%" stop-color="white"/>
      <stop offset="100%" stop-color="rgb(186,209,231)"/>
    </radialGradient>
    <filter id="glow_1_3">
      <feGaussianBlur stdDeviation="6" result="blur"/>
      <feComposite in="SourceGraphic" in2="blur" operator="over"/>
    </filter>
  </defs>
  <g transform="translate(21.0, 31.9)">
  <ellipse cx="49.0" cy="55" rx="59" ry="50" fill="#5B9BD5" opacity="0.18" filter="url(#glow_1_3)"/>
  <ellipse cx="36.0" cy="13.7" rx="14.1" ry="11.4" fill="url(#bumpGrad_1_3)" opacity="1.00"/>
  <ellipse cx="64.0" cy="15.7" rx="11.4" ry="9.7" fill="url(#bumpGrad_1_3)" opacity="1.00"/>
  <ellipse cx="49" cy="47" rx="44" ry="38" fill="url(#bodyGrad_1_3)" opacity="1.00"/>
<path d="M22.6,42.08 Q28.6,26.08 34.6,42.08" fill="none" stroke="#2C5F8A" stroke-width="2.5" stroke-linecap="round"/>
<path d="M64.84,42.08 Q70.84,26.08 76.84,42.08" fill="none" stroke="#2C5F8A" stroke-width="2.5" stroke-linecap="round"/>
  <ellipse cx="23.5" cy="50.8" rx="7.9" ry="4.6" fill="#5B9BD5" opacity="0.22"/>
  <ellipse cx="70.1" cy="50.8" rx="7.9" ry="4.6" fill="#5B9BD5" opacity="0.22"/>
<path d="M41.0,64.6 Q49.0,54.6 57.0,64.6" fill="none" stroke="#2C5F8A" stroke-width="2" stroke-linecap="round"/>
<path d="M36.68,9.8 Q49,1 61.32,9.8 Z" fill="#5B9BD5" opacity="0.85"/>
<line x1="49" y1="9.8" x2="49" y2="21.8" stroke="#5B9BD5" stroke-width="1.8"/>
<line x1="27" y1="97" x2="26" y2="107" stroke="#5B9BD5" stroke-width="1.5" opacity="0.55"/>
<line x1="37" y1="100" x2="36" y2="110" stroke="#5B9BD5" stroke-width="1.5" opacity="0.55"/>
<line x1="47" y1="103" x2="46" y2="113" stroke="#5B9BD5" stroke-width="1.5" opacity="0.55"/>
<line x1="57" y1="106" x2="56" y2="116" stroke="#5B9BD5" stroke-width="1.5" opacity="0.55"/>
  <ellipse cx="49" cy="89" rx="35.2" ry="5" fill="rgb(179,207,234)" opacity="0.35"/>
  </g>
</svg>
