<svg xmlns="http://www.w3.org/2000/svg" width="140" height="160" viewBox="0 0 140 160">
  <defs>
    <radialGradient id="bodyGrad_1_2" cx="38%" cy="32%" r="60%">
      <stop offset="0%" stop-color="white"/>
      <stop offset="100%" stop-color="rgb(197,212,226)"/>
    </radialGradient>
    <radialGradient id="bumpGrad_1_2" cx="40%" cy="35%" r="60%">
      <stop offset="0%" stop-color="white"/>
      <stop offset="100%" stop-color="rgb(201,213,225)"/>
    </radialGradient>
    <filter id="glow_1_2">
      <feGaussianBlur stdDeviation="6" result="blur"/>
      <feComposite in="SourceGraphic" in2="blur" operator="over"/>
    </filter>
  </defs>
  <g transform="translate(21.0, 30.0)">
  <ellipse cx="40.0" cy="18.2" rx="11.2" ry="9.1" fill="url(#bumpGrad_1_2)" opacity="1.00"/>
  <ellipse cx="68.0" cy="20.3" rx="9.1" ry="7.7" fill="url(#bumpGrad_1_2)" opacity="1.00"/>
  <ellipse cx="49" cy="48" rx="38" ry="34" fill="url(#bodyGrad_1_2)" opacity="1.00"/>
<path d="M25.0,44.44 Q31.0,28.439999999999998 37.0,44.44" fill="none" stroke="#2C5F8A" stroke-width="2.5" stroke-linecap="round"/>
<path d="M63.400000000000006,44.44 Q69.4,28.439999999999998 75.4,44.44" fill="none" stroke="#2C5F8A" stroke-width="2.5" stroke-linecap="round"/>
<path d="M41.0,64.8 Q49.0,54.8 57.0,64.8" fill="none" stroke="#2C5F8A" stroke-width="2" stroke-linecap="round"/>
<path d="M38.92,13.2 Q49,6 59.08,13.2 Z" fill="#5B9BD5" opacity="0.85"/>
<line x1="49" y1="13.2" x2="49" y2="25.2" stroke="#5B9BD5" stroke-width="1.8"/>
<line x1="27" y1="102" x2="26" y2="112" stroke="#5B9BD5" stroke-width="1.5" opacity="0.55"/>
<line x1="37" y1="105" x2="36" y2="115" stroke="#5B9BD5" stroke-width="1.5" opacity="0.55"/>
<line x1="47" y1="108" x2="46" y2="118" stroke="#5B9BD5" stroke-width="1.5" opacity="0.55"/>
<line x1="57" y1="111" x2="56" y2="121" stroke="#5B9BD5" stroke-width="1.5" opacity="0.55"/>
  <ellipse cx="49" cy="86" rx="32.0" ry="5" fill="rgb(197,212,226)" opacity="0.35"/>
  </g>
</svg>
