<svg xmlns="http://www.w3.org/2000/svg" width="140" height="160" viewBox="0 0 140 160">
  <defs>
    <radialGradient id="bodyGrad_1_4" cx="38%" cy="32%" r="60%">
      <stop offset="0%" stop-color="white"/>
      <stop offset="100%" stop-color="rgb(168,204,238)"/>
    </radialGradient>
    <radialGradient id="bumpGrad_1_4" cx="40%" cy="35%" r="60%">
      <stop offset="0%" stop-color="white"/>
      <stop offset="100%" stop-color="rgb(177,207,234)"/>
    </radialGradient>
    <filter id="glow_1_4">
      <feGaussianBlur stdDeviation="6" result="blur"/>
      <feComposite in="SourceGraphic" in2="blur" operator="over"/>
    </filter>
  </defs>
  <g transform="translate(22.0, 32.5)">
  <ellipse cx="48.0" cy="55" rx="59" ry="51" fill="#5B9BD5" opacity="0.28" filter="url(#glow_1_4)"/>
  <ellipse cx="48.0" cy="52" rx="62" ry="53" fill="none" stroke="#5B9BD5" stroke-width="1.2" opacity="0.2"/>
  <ellipse cx="35.0" cy="13.0" rx="16.0" ry="13.0" fill="url(#bumpGrad_1_4)" opacity="1.00"/>
  <ellipse cx="63.0" cy="15.0" rx="13.0" ry="11.0" fill="url(#bumpGrad_1_4)" opacity="1.00"/>
  <ellipse cx="9.0" cy="25.0" rx="11.0" ry="9.0" fill="url(#bumpGrad_1_4)" opacity="1.00"/>
  <ellipse cx="88.0" cy="25.0" rx="10.0" ry="9.0" fill="url(#bumpGrad_1_4)" opacity="1.00"/>
  <ellipse cx="48" cy="47" rx="46" ry="39" fill="url(#bodyGrad_1_4)" opacity="1.00"/>
<path d="M21.6,41.74 Q27.6,25.740000000000002 33.6,41.74" fill="none" stroke="#2C5F8A" stroke-width="2.5" stroke-linecap="round"/>
<path d="M63.84,41.74 Q69.84,25.740000000000002 75.84,41.74" fill="none" stroke="#2C5F8A" stroke-width="2.5" stroke-linecap="round"/>
  <ellipse cx="22.5" cy="50.9" rx="7.9" ry="4.7" fill="#5B9BD5" opacity="0.22"/>
  <ellipse cx="69.1" cy="50.9" rx="7.9" ry="4.7" fill="#5B9BD5" opacity="0.22"/>
<path d="M40.0,64.8 Q48.0,54.8 56.0,64.8" fill="none" stroke="#2C5F8A" stroke-width="2" stroke-linecap="round"/>
<path d="M34.0,10.0 Q48,0 62.0,10.0 Z" fill="#5B9BD5" opacity="0.85"/>
<line x1="48" y1="10.0" x2="48" y2="22.0" stroke="#5B9BD5" stroke-width="1.8"/>
<line x1="26" y1="96" x2="25" y2="106" stroke="#5B9BD5" stroke-width="1.5" opacity="0.55"/>
<line x1="36" y1="99" x2="35" y2="109" stroke="#5B9BD5" stroke-width="1.5" opacity="0.55"/>
<line x1="46" y1="102" x2="45" y2="112" stroke="#5B9BD5" stroke-width="1.5" opacity="0.55"/>
<line x1="56" y1="105" x2="55" y2="115" stroke="#5B9BD5" stroke-width="1.5" opacity="0.55"/>
<line x1="66" y1="108" x2="65" y2="118" stroke="#5B9BD5" stroke-width="1.5" opacity="0.55"/>
<line x1="76" y1="111" x2="75" y2="121" stroke="#5B9BD5" stroke-width="1.5" opacity="0.55"/>
  <ellipse cx="48" cy="90" rx="35.2" ry="5" fill="rgb(168,204,238)" opacity="0.35"/>
  </g>
</svg>
