<svg xmlns="http://www.w3.org/2000/svg" width="140" height="160" viewBox="0 0 140 160">
  <defs>
    <radialGradient id="bodyGrad_2_4" cx="38%" cy="32%" r="60%">
      <stop offset="0%" stop-color="white"/>
      <stop offset="100%" stop-color="rgb(255,170,170)"/>
    </radialGradient>
    <radialGradient id="bumpGrad_2_4" cx="40%" cy="35%" r="60%">
      <stop offset="0%" stop-color="white"/>
      <stop offset="100%" stop-color="rgb(248,179,179)"/>
    </radialGradient>
    <filter id="glow_2_4">
      <feGaussianBlur stdDeviation="6" result="blur"/>
      <feComposite in="SourceGraphic" in2="blur" operator="over"/>
    </filter>
  </defs>
  <g transform="translate(22.0, 37.5)">
    <!-- 글로우 -->
    <ellipse cx="48" cy="55" rx="59" ry="51" fill="#FF5252" opacity="0.28" filter="url(#glow_2_4)"/>
    <ellipse cx="48" cy="52" rx="62" ry="53" fill="none" stroke="#FF5252" stroke-width="1.2" opacity="0.2"/>
    <!-- 머리 위 돌기들 -->
    <ellipse cx="26.0" cy="5.0" rx="14.0" ry="13.0" fill="url(#bumpGrad_2_4)" opacity="1.00"/>
    <ellipse cx="53.0" cy="2.0" rx="11.0" ry="12.0" fill="url(#bumpGrad_2_4)" opacity="1.00"/>
    <ellipse cx="77.0" cy="7.0" rx="13.0" ry="11.0" fill="url(#bumpGrad_2_4)" opacity="1.00"/>
    <ellipse cx="8.0" cy="23.0" rx="10.0" ry="9.0" fill="url(#bumpGrad_2_4)" opacity="1.00"/>
    <ellipse cx="89.0" cy="22.0" rx="9.0" ry="8.0" fill="url(#bumpGrad_2_4)" opacity="1.00"/>
    <!-- 몸통 -->
    <ellipse cx="48" cy="47" rx="46" ry="39" fill="url(#bodyGrad_2_4)" opacity="1.00"/>
    <!-- 왼쪽 눈 -->
    <line x1="21.6" y1="25.4" x2="33.6" y2="29.4" stroke="#8A1A1A" stroke-width="2.5" stroke-linecap="round"/>
    <ellipse cx="27.6" cy="35.4" rx="6.0" ry="4.0" fill="#8A1A1A"/>
    <ellipse cx="26.16" cy="34.2" rx="2.16" ry="1.76" fill="rgba(255,255,255,0.5)"/>
    <!-- 오른쪽 눈 -->
    <line x1="63.84" y1="25.4" x2="75.84" y2="21.4" stroke="#8A1A1A" stroke-width="2.5" stroke-linecap="round"/>
    <ellipse cx="69.84" cy="35.4" rx="6.0" ry="4.0" fill="#8A1A1A"/>
    <ellipse cx="68.4" cy="34.2" rx="2.16" ry="1.76" fill="rgba(255,255,255,0.5)"/>
    <!-- 볼 홍조 -->
    <ellipse cx="22.5" cy="50.9" rx="7.9" ry="4.7" fill="#FF5252" opacity="0.22"/>
    <ellipse cx="69.1" cy="50.9" rx="7.9" ry="4.7" fill="#FF5252" opacity="0.22"/>
    <!-- 입 (닫힌 미소) -->
    <path d="M41.0,59.8 Q48.0,54.8 55.0,59.8" fill="none" stroke="#8A1A1A" stroke-width="2.5" stroke-linecap="round" opacity="0.7"/>
    <!-- 머리 위 번개 장식 -->
    <path d="M30,-4 L24,6 L30,6 L24,18" fill="none" stroke="#FF5252" stroke-width="2.5" stroke-linecap="round"/>
    <path d="M54,-6 L48,4 L54,4 L48,16" fill="none" stroke="#FF5252" stroke-width="2.2" stroke-linecap="round"/>
    <!-- 불꽃 장식 (SVG, 왼쪽 볼) -->
    <g opacity="0.55">
      <path d="M11,62 C7,59 6,54 9,50 C10,53 11,52 12,49 C14,53 15,57 11,62 Z" fill="#FF6D3A"/>
      <path d="M11,61 C9,58 8,55 10,52 C11,54 11,54 12,52 C13,55 13,58 11,61 Z" fill="#FFC34A"/>
    </g>
    <!-- 불꽃 장식 (SVG, 오른쪽 볼) -->
    <g opacity="0.50">
      <path d="M77,62 C73,59 72,54 75,50 C76,53 77,52 78,49 C80,53 81,57 77,62 Z" fill="#FF6D3A"/>
      <path d="M77,61 C75,58 74,55 76,52 C77,54 77,54 78,52 C79,55 79,58 77,61 Z" fill="#FFC34A"/>
    </g>
    <!-- 그림자 -->
    <ellipse cx="48" cy="90" rx="35.2" ry="5" fill="rgb(255,170,170)" opacity="0.35"/>
  </g>
</svg>
