<svg xmlns="http://www.w3.org/2000/svg" width="140" height="160" viewBox="0 0 140 160">
  <defs>
    <radialGradient id="bodyGrad_5_4" cx="38%" cy="32%" r="60%">
      <stop offset="0%" stop-color="white"/>
      <stop offset="100%" stop-color="rgb(255,175,210)"/>
    </radialGradient>
    <radialGradient id="bumpGrad_5_4" cx="40%" cy="35%" r="60%">
      <stop offset="0%" stop-color="white"/>
      <stop offset="100%" stop-color="rgb(248,183,211)"/>
    </radialGradient>
    <filter id="glow_5_4">
      <feGaussianBlur stdDeviation="6" result="blur"/>
      <feComposite in="SourceGraphic" in2="blur" operator="over"/>
    </filter>
  </defs>
  <g transform="translate(21.0, 36.5)">
  <ellipse cx="49.0" cy="55" rx="59" ry="51" fill="#FF7EB3" opacity="0.28" filter="url(#glow_5_4)"/>
  <ellipse cx="49.0" cy="52" rx="62" ry="53" fill="none" stroke="#FF7EB3" stroke-width="1.2" opacity="0.2"/>
  <ellipse cx="28.0" cy="9.0" rx="20.0" ry="17.0" fill="url(#bumpGrad_5_4)" opacity="1.00"/>
  <ellipse cx="66.0" cy="12.0" rx="18.0" ry="16.0" fill="url(#bumpGrad_5_4)" opacity="1.00"/>
  <ellipse cx="8.0" cy="26.0" rx="14.0" ry="12.0" fill="url(#bumpGrad_5_4)" opacity="1.00"/>
  <ellipse cx="91.0" cy="25.0" rx="13.0" ry="11.0" fill="url(#bumpGrad_5_4)" opacity="1.00"/>
  <ellipse cx="8.0" cy="72.0" rx="12.0" ry="10.0" fill="url(#bumpGrad_5_4)" opacity="1.00"/>
  <ellipse cx="91.0" cy="71.0" rx="11.0" ry="9.0" fill="url(#bumpGrad_5_4)" opacity="1.00"/>
  <ellipse cx="48" cy="47" rx="46" ry="39" fill="url(#bodyGrad_5_4)" opacity="1.00"/>
<text x="27.6" y="41.84" text-anchor="middle" font-size="12" fill="#AA3370">✦</text>
<text x="69.84" y="41.84" text-anchor="middle" font-size="12" fill="#AA3370">✦</text>
  <ellipse cx="22.5" cy="50.9" rx="7.9" ry="4.7" fill="#FF7EB3" opacity="0.22"/>
  <ellipse cx="69.1" cy="50.9" rx="7.9" ry="4.7" fill="#FF7EB3" opacity="0.22"/>
<path d="M37.0,54.8 Q48.0,72.8 59.0,54.8" fill="none" stroke="#AA3370" stroke-width="2.5" stroke-linecap="round"/>
<path d="M14,-0.5 C14,-6 3,-6 3,-0.5 C3,5 14,11.600000000000001 14,11.600000000000001 C14,11.600000000000001 25,5 25,-0.5 C25,-6 14,-6 14,-0.5 Z" fill="#FF7EB3" opacity="0.85"/>
<path d="M68,0.5 C68,-4 59,-4 59,0.5 C59,5 68,10.4 68,10.4 C68,10.4 77,5 77,0.5 C77,-4 68,-4 68,0.5 Z" fill="#FF7EB3" opacity="0.85"/>
<path d="M42,81.5 C42,76 31,76 31,81.5 C31,87 42,93.6 42,93.6 C42,93.6 53,87 53,81.5 C53,76 42,76 42,81.5 Z" fill="#FF7EB3" opacity="0.85"/>
<path d="M4,33.5 C4,30 -3,30 -3,33.5 C-3,37 4,41.2 4,41.2 C4,41.2 11,37 11,33.5 C11,30 4,30 4,33.5 Z" fill="#FF7EB3" opacity="0.85"/>
<path d="M84,31.5 C84,28 77,28 77,31.5 C77,35 84,39.2 84,39.2 C84,39.2 91,35 91,31.5 C91,28 84,28 84,31.5 Z" fill="#FF7EB3" opacity="0.85"/>
  <ellipse cx="48" cy="90" rx="35.2" ry="5" fill="rgb(255,175,210)" opacity="0.35"/>
  </g>
</svg>
