<svg xmlns="http://www.w3.org/2000/svg" width="140" height="160" viewBox="0 0 140 160">
  <defs>
    <radialGradient id="bodyGrad_10_4" cx="38%" cy="32%" r="60%">
      <stop offset="0%" stop-color="white"/>
      <stop offset="100%" stop-color="rgb(210,230,160)"/>
    </radialGradient>
    <radialGradient id="bumpGrad_10_4" cx="40%" cy="35%" r="60%">
      <stop offset="0%" stop-color="white"/>
      <stop offset="100%" stop-color="rgb(215,228,170)"/>
    </radialGradient>
    <filter id="glow_10_4">
      <feGaussianBlur stdDeviation="6" result="blur"/>
      <feComposite in="SourceGraphic" in2="blur" operator="over"/>
    </filter>
  </defs>
  <g transform="translate(22.0, 32.5)">
  <ellipse cx="48.0" cy="55" rx="59" ry="51" fill="#8DB600" opacity="0.28" filter="url(#glow_10_4)"/>
  <ellipse cx="48.0" cy="52" rx="62" ry="53" fill="none" stroke="#8DB600" stroke-width="1.2" opacity="0.2"/>
  <ellipse cx="35.0" cy="13.0" rx="16.0" ry="13.0" fill="url(#bumpGrad_10_4)" opacity="1.00"/>
  <ellipse cx="63.0" cy="15.0" rx="13.0" ry="11.0" fill="url(#bumpGrad_10_4)" opacity="1.00"/>
  <ellipse cx="9.0" cy="25.0" rx="11.0" ry="9.0" fill="url(#bumpGrad_10_4)" opacity="1.00"/>
  <ellipse cx="88.0" cy="25.0" rx="10.0" ry="9.0" fill="url(#bumpGrad_10_4)" opacity="1.00"/>
  <ellipse cx="48" cy="47" rx="46" ry="39" fill="url(#bodyGrad_10_4)" opacity="1.00"/>
<path d="M21.0,38.0 Q28.0,32.0 35.0,38.0" fill="none" stroke="#3D5000" stroke-width="2.5" stroke-linecap="round"/>
<path d="M63.0,38.0 Q70.0,32.0 77.0,38.0" fill="none" stroke="#3D5000" stroke-width="2.5" stroke-linecap="round"/>
  <ellipse cx="22.5" cy="50.9" rx="7.9" ry="4.7" fill="#8DB600" opacity="0.22"/>
  <ellipse cx="69.1" cy="50.9" rx="7.9" ry="4.7" fill="#8DB600" opacity="0.22"/>
<path d="M37.0,58.0 Q48.0,52.0 59.0,58.0" fill="none" stroke="#3D5000" stroke-width="2" stroke-linecap="round"/>
<path d="M36.0,6.0 L40.0,-2.0 L44.0,3.0 L48.0,-5.0 L52.0,3.0 L56.0,-2.0 L60.0,6.0" fill="none" stroke="#8DB600" stroke-width="2.2" stroke-linecap="round" opacity="0.85"/>
<circle cx="48" cy="-7" r="3.0" fill="#8DB600" opacity="0.6"/>
<circle cx="38" cy="-1" r="2.0" fill="#8DB600" opacity="0.4"/>
<circle cx="58" cy="-1" r="2.0" fill="#8DB600" opacity="0.4"/>
<text x="18" y="1" font-size="9" opacity="0.6">&#x2B50;</text>
<text x="68" y="3" font-size="8" opacity="0.5">&#x2B50;</text>
<line x1="26" y1="96" x2="25" y2="106" stroke="#8DB600" stroke-width="1.5" opacity="0.55"/>
<line x1="36" y1="99" x2="35" y2="109" stroke="#8DB600" stroke-width="1.5" opacity="0.55"/>
<line x1="46" y1="102" x2="45" y2="112" stroke="#8DB600" stroke-width="1.5" opacity="0.55"/>
<line x1="56" y1="105" x2="55" y2="115" stroke="#8DB600" stroke-width="1.5" opacity="0.55"/>
<line x1="66" y1="108" x2="65" y2="118" stroke="#8DB600" stroke-width="1.5" opacity="0.55"/>
<line x1="76" y1="111" x2="75" y2="121" stroke="#8DB600" stroke-width="1.5" opacity="0.55"/>
  <ellipse cx="48" cy="90" rx="35.2" ry="5" fill="rgb(210,230,160)" opacity="0.35"/>
  </g>
</svg>
