<svg xmlns="http://www.w3.org/2000/svg" width="140" height="160" viewBox="0 0 140 160">
  <defs>
    <radialGradient id="bodyGrad_4_4" cx="38%" cy="32%" r="60%">
      <stop offset="0%" stop-color="white"/>
      <stop offset="100%" stop-color="rgb(178,186,187)"/>
    </radialGradient>
    <radialGradient id="bumpGrad_4_4" cx="40%" cy="35%" r="60%">
      <stop offset="0%" stop-color="white"/>
      <stop offset="100%" stop-color="rgb(185,192,193)"/>
    </radialGradient>
    <filter id="glow_4_4">
      <feGaussianBlur stdDeviation="6" result="blur"/>
      <feComposite in="SourceGraphic" in2="blur" operator="over"/>
    </filter>
  </defs>
  <g transform="translate(23.0, 32.5)">
  <ellipse cx="47.0" cy="55" rx="59" ry="51" fill="#7F8C8D" opacity="0.28" filter="url(#glow_4_4)"/>
  <ellipse cx="47.0" cy="52" rx="62" ry="53" fill="none" stroke="#7F8C8D" stroke-width="1.2" opacity="0.2"/>
  <ellipse cx="35.0" cy="11.0" rx="13.0" ry="11.0" fill="url(#bumpGrad_4_4)" opacity="1.00"/>
  <ellipse cx="59.0" cy="13.0" rx="11.0" ry="9.0" fill="url(#bumpGrad_4_4)" opacity="1.00"/>
  <ellipse cx="9.0" cy="23.0" rx="9.0" ry="7.0" fill="url(#bumpGrad_4_4)" opacity="1.00"/>
  <ellipse cx="86.0" cy="23.0" rx="8.0" ry="7.0" fill="url(#bumpGrad_4_4)" opacity="1.00"/>
  <ellipse cx="48" cy="47" rx="46" ry="39" fill="url(#bodyGrad_4_4)" opacity="1.00"/>
<path d="M21.6,34.52 Q27.6,45.32000000000001 33.6,34.52" fill="none" stroke="#5A5A5A" stroke-width="2" stroke-linecap="round"/>
<path d="M63.84,34.52 Q69.84,45.32000000000001 75.84,34.52" fill="none" stroke="#5A5A5A" stroke-width="2" stroke-linecap="round"/>
  <ellipse cx="22.5" cy="50.9" rx="7.9" ry="4.7" fill="#7F8C8D" opacity="0.22"/>
  <ellipse cx="69.1" cy="50.9" rx="7.9" ry="4.7" fill="#7F8C8D" opacity="0.22"/>
<path d="M40.0,54.8 Q48.0,64.8 56.0,54.8" fill="none" stroke="#5A5A5A" stroke-width="2" stroke-linecap="round"/>
<path d="M70.0,-9.0 L72.2,-3.1 L78.6,-2.8 L73.6,1.2 L75.3,7.3 L70.0,3.8 L64.7,7.3 L66.4,1.2 L61.4,-2.8 L67.8,-3.1 Z" fill="#B2BABB" opacity="0.9"/>
<path d="M24.0,-3.0 L25.7,1.6 L30.7,1.8 L26.8,4.9 L28.1,9.7 L24.0,6.9 L19.9,9.7 L21.2,4.9 L17.3,1.8 L22.3,1.6 Z" fill="#B2BABB" opacity="0.9"/>
<path d="M76.0,24.0 L77.5,28.0 L81.7,28.1 L78.4,30.8 L79.5,34.9 L76.0,32.5 L72.5,34.9 L73.6,30.8 L70.3,28.1 L74.5,28.0 Z" fill="#B2BABB" opacity="0.9"/>
<path d="M48.0,-16.0 L49.5,-12.0 L53.7,-11.9 L50.4,-9.2 L51.5,-5.1 L48.0,-7.5 L44.5,-5.1 L45.6,-9.2 L42.3,-11.9 L46.5,-12.0 Z" fill="#B2BABB" opacity="0.9"/>
  <ellipse cx="48" cy="90" rx="35.2" ry="5" fill="rgb(178,186,187)" opacity="0.35"/>
  </g>
</svg>
