<svg xmlns="http://www.w3.org/2000/svg" width="140" height="160" viewBox="0 0 140 160">
  <defs>
    <radialGradient id="bodyGrad_7_4" cx="38%" cy="32%" r="60%">
      <stop offset="0%" stop-color="white"/>
      <stop offset="100%" stop-color="rgb(163,228,215)"/>
    </radialGradient>
    <radialGradient id="bumpGrad_7_4" cx="40%" cy="35%" r="60%">
      <stop offset="0%" stop-color="white"/>
      <stop offset="100%" stop-color="rgb(173,226,216)"/>
    </radialGradient>
    <filter id="glow_7_4">
      <feGaussianBlur stdDeviation="6" result="blur"/>
      <feComposite in="SourceGraphic" in2="blur" operator="over"/>
    </filter>
  </defs>
  <g transform="translate(24.9, 39.5)">
  <ellipse cx="45.1" cy="55" rx="59" ry="51" fill="#48C9B0" opacity="0.28" filter="url(#glow_7_4)"/>
  <ellipse cx="45.1" cy="52" rx="62" ry="53" fill="none" stroke="#48C9B0" stroke-width="1.2" opacity="0.2"/>
  <ellipse cx="33.0" cy="10.0" rx="17.0" ry="14.0" fill="url(#bumpGrad_7_4)" opacity="1.00"/>
  <ellipse cx="62.0" cy="12.0" rx="14.0" ry="12.0" fill="url(#bumpGrad_7_4)" opacity="1.00"/>
  <ellipse cx="8.0" cy="24.0" rx="12.0" ry="10.0" fill="url(#bumpGrad_7_4)" opacity="1.00"/>
  <ellipse cx="89.0" cy="24.0" rx="11.0" ry="10.0" fill="url(#bumpGrad_7_4)" opacity="1.00"/>
  <ellipse cx="8.0" cy="69.0" rx="10.0" ry="9.0" fill="url(#bumpGrad_7_4)" opacity="1.00"/>
  <ellipse cx="90.0" cy="68.0" rx="10.0" ry="8.0" fill="url(#bumpGrad_7_4)" opacity="1.00"/>
  <ellipse cx="48" cy="47" rx="46" ry="39" fill="url(#bodyGrad_7_4)" opacity="1.00"/>
<path d="M21.6,33.74 Q27.6,44.540000000000006 33.6,33.74" fill="none" stroke="#1A7A6A" stroke-width="2" stroke-linecap="round"/>
<path d="M63.84,33.74 Q69.84,44.540000000000006 75.84,33.74" fill="none" stroke="#1A7A6A" stroke-width="2" stroke-linecap="round"/>
  <ellipse cx="22.5" cy="50.9" rx="7.9" ry="4.7" fill="#48C9B0" opacity="0.22"/>
  <ellipse cx="69.1" cy="50.9" rx="7.9" ry="4.7" fill="#48C9B0" opacity="0.22"/>
<path d="M39.0,54.8 Q48.0,64.8 57.0,54.8" fill="none" stroke="#1A7A6A" stroke-width="2" stroke-linecap="round"/>
<g transform="translate(22,-4) rotate(-35)">
<ellipse cx="0" cy="0" rx="9.799999999999999" ry="14" fill="#48C9B0" opacity="0.9"/>
<line x1="0" y1="-14" x2="0" y2="14" stroke="#A3E4D7" stroke-width="1" opacity="0.6"/>
</g>
<g transform="translate(66,-2) rotate(32)">
<ellipse cx="0" cy="0" rx="8.399999999999999" ry="12" fill="#48C9B0" opacity="0.9"/>
<line x1="0" y1="-12" x2="0" y2="12" stroke="#A3E4D7" stroke-width="1" opacity="0.6"/>
</g>
<g transform="translate(44,-12) rotate(0)">
<ellipse cx="0" cy="0" rx="8.399999999999999" ry="12" fill="#48C9B0" opacity="0.9"/>
<line x1="0" y1="-12" x2="0" y2="12" stroke="#A3E4D7" stroke-width="1" opacity="0.6"/>
</g>
<g transform="translate(12,20) rotate(-15)">
<ellipse cx="0" cy="0" rx="6.3" ry="9" fill="#48C9B0" opacity="0.9"/>
<line x1="0" y1="-9" x2="0" y2="9" stroke="#A3E4D7" stroke-width="1" opacity="0.6"/>
</g>
<g transform="translate(78,22) rotate(18)">
<ellipse cx="0" cy="0" rx="6.3" ry="9" fill="#48C9B0" opacity="0.9"/>
<line x1="0" y1="-9" x2="0" y2="9" stroke="#A3E4D7" stroke-width="1" opacity="0.6"/>
</g>
  <ellipse cx="48" cy="90" rx="35.2" ry="5" fill="rgb(163,228,215)" opacity="0.35"/>
  </g>
</svg>
