<svg xmlns="http://www.w3.org/2000/svg" width="140" height="160" viewBox="0 0 140 160">
  <defs>
    <radialGradient id="bodyGrad_9_4" cx="38%" cy="32%" r="60%">
      <stop offset="0%" stop-color="white"/>
      <stop offset="100%" stop-color="rgb(255,195,160)"/>
    </radialGradient>
    <radialGradient id="bumpGrad_9_4" cx="40%" cy="35%" r="60%">
      <stop offset="0%" stop-color="white"/>
      <stop offset="100%" stop-color="rgb(250,200,170)"/>
    </radialGradient>
    <filter id="glow_9_4">
      <feGaussianBlur stdDeviation="6" result="blur"/>
      <feComposite in="SourceGraphic" in2="blur" operator="over"/>
    </filter>
  </defs>
  <g transform="translate(22.0, 32.5)">
  <ellipse cx="48.0" cy="55" rx="59" ry="51" fill="#FF6B35" opacity="0.28" filter="url(#glow_9_4)"/>
  <ellipse cx="48.0" cy="52" rx="62" ry="53" fill="none" stroke="#FF6B35" stroke-width="1.2" opacity="0.2"/>
  <ellipse cx="35.0" cy="13.0" rx="16.0" ry="13.0" fill="url(#bumpGrad_9_4)" opacity="1.00"/>
  <ellipse cx="63.0" cy="15.0" rx="13.0" ry="11.0" fill="url(#bumpGrad_9_4)" opacity="1.00"/>
  <ellipse cx="9.0" cy="25.0" rx="11.0" ry="9.0" fill="url(#bumpGrad_9_4)" opacity="1.00"/>
  <ellipse cx="88.0" cy="25.0" rx="10.0" ry="9.0" fill="url(#bumpGrad_9_4)" opacity="1.00"/>
  <ellipse cx="48" cy="47" rx="46" ry="39" fill="url(#bodyGrad_9_4)" opacity="1.00"/>
<ellipse cx="25" cy="36" rx="5.5" ry="6.5" fill="#8A3000" opacity="0.9"/>
<ellipse cx="23.5" cy="34" rx="2" ry="2.5" fill="white" opacity="0.8"/>
<ellipse cx="71" cy="36" rx="5.5" ry="6.5" fill="#8A3000" opacity="0.9"/>
<ellipse cx="69.5" cy="34" rx="2" ry="2.5" fill="white" opacity="0.8"/>
  <ellipse cx="22.5" cy="50.9" rx="7.9" ry="4.7" fill="#FF6B35" opacity="0.22"/>
  <ellipse cx="69.1" cy="50.9" rx="7.9" ry="4.7" fill="#FF6B35" opacity="0.22"/>
<ellipse cx="48" cy="56" rx="5" ry="6" fill="none" stroke="#8A3000" stroke-width="2"/>
<line x1="34" y1="4" x2="28" y2="-5" stroke="#FF6B35" stroke-width="2.5" stroke-linecap="round" opacity="0.85"/>
<line x1="41" y1="1" x2="38" y2="-8" stroke="#FF6B35" stroke-width="2.5" stroke-linecap="round" opacity="0.85"/>
<line x1="48" y1="0" x2="48" y2="-9" stroke="#FF6B35" stroke-width="2.5" stroke-linecap="round" opacity="0.85"/>
<line x1="55" y1="1" x2="58" y2="-8" stroke="#FF6B35" stroke-width="2.5" stroke-linecap="round" opacity="0.85"/>
<line x1="62" y1="4" x2="68" y2="-5" stroke="#FF6B35" stroke-width="2.5" stroke-linecap="round" opacity="0.85"/>
<text x="16" y="0" font-size="8" opacity="0.7">!</text>
<text x="72" y="0" font-size="8" opacity="0.7">!</text>
<line x1="26" y1="96" x2="25" y2="106" stroke="#FF6B35" stroke-width="1.5" opacity="0.55"/>
<line x1="36" y1="99" x2="35" y2="109" stroke="#FF6B35" stroke-width="1.5" opacity="0.55"/>
<line x1="46" y1="102" x2="45" y2="112" stroke="#FF6B35" stroke-width="1.5" opacity="0.55"/>
<line x1="56" y1="105" x2="55" y2="115" stroke="#FF6B35" stroke-width="1.5" opacity="0.55"/>
<line x1="66" y1="108" x2="65" y2="118" stroke="#FF6B35" stroke-width="1.5" opacity="0.55"/>
<line x1="76" y1="111" x2="75" y2="121" stroke="#FF6B35" stroke-width="1.5" opacity="0.55"/>
  <ellipse cx="48" cy="90" rx="35.2" ry="5" fill="rgb(255,195,160)" opacity="0.35"/>
  </g>
</svg>
