<svg xmlns="http://www.w3.org/2000/svg" width="140" height="160" viewBox="0 0 140 160">
  <defs>
    <radialGradient id="bodyGrad_6_4" cx="38%" cy="32%" r="60%">
      <stop offset="0%" stop-color="white"/>
      <stop offset="100%" stop-color="rgb(204,209,209)"/>
    </radialGradient>
    <radialGradient id="bumpGrad_6_4" cx="40%" cy="35%" r="60%">
      <stop offset="0%" stop-color="white"/>
      <stop offset="100%" stop-color="rgb(207,211,211)"/>
    </radialGradient>
    <filter id="glow_6_4">
      <feGaussianBlur stdDeviation="6" result="blur"/>
      <feComposite in="SourceGraphic" in2="blur" operator="over"/>
    </filter>
  </defs>
  <g transform="translate(20.0, 31.5)">
  <ellipse cx="50.0" cy="55" rx="59" ry="51" fill="#95A5A6" opacity="0.28" filter="url(#glow_6_4)"/>
  <ellipse cx="50.0" cy="52" rx="62" ry="53" fill="none" stroke="#95A5A6" stroke-width="1.2" opacity="0.2"/>
  <ellipse cx="34.0" cy="17.0" rx="18.0" ry="15.0" fill="url(#bumpGrad_6_4)" opacity="1.00"/>
  <ellipse cx="63.0" cy="19.0" rx="15.0" ry="13.0" fill="url(#bumpGrad_6_4)" opacity="1.00"/>
  <ellipse cx="8.0" cy="30.0" rx="14.0" ry="12.0" fill="url(#bumpGrad_6_4)" opacity="1.00"/>
  <ellipse cx="93.0" cy="29.0" rx="13.0" ry="11.0" fill="url(#bumpGrad_6_4)" opacity="1.00"/>
  <ellipse cx="9.0" cy="73.0" rx="13.0" ry="10.0" fill="url(#bumpGrad_6_4)" opacity="1.00"/>
  <ellipse cx="92.0" cy="72.0" rx="12.0" ry="9.0" fill="url(#bumpGrad_6_4)" opacity="1.00"/>
  <ellipse cx="48" cy="47" rx="46" ry="39" fill="url(#bodyGrad_6_4)" opacity="1.00"/>
<path d="M21.6,36.08 Q27.6,43.28 33.6,36.08" fill="none" stroke="#5A5A5A" stroke-width="2" stroke-linecap="round"/>
<path d="M63.84,36.08 Q69.84,43.28 75.84,36.08" fill="none" stroke="#5A5A5A" stroke-width="2" stroke-linecap="round"/>
  <ellipse cx="22.5" cy="50.9" rx="7.9" ry="4.7" fill="#95A5A6" opacity="0.22"/>
  <ellipse cx="69.1" cy="50.9" rx="7.9" ry="4.7" fill="#95A5A6" opacity="0.22"/>
<path d="M38.0,54.8 Q48.0,64.8 58.0,54.8" fill="none" stroke="#5A5A5A" stroke-width="2" stroke-linecap="round"/>
<text x="66" y="-4" font-size="13" font-weight="800" fill="#95A5A6" opacity="0.9">z</text>
<text x="74" y="-12" font-size="10" font-weight="800" fill="#95A5A6" opacity="0.9">z</text>
<text x="80" y="-18" font-size="8" font-weight="800" fill="#95A5A6" opacity="0.9">z</text>
  <ellipse cx="48" cy="90" rx="35.2" ry="5" fill="rgb(204,209,209)" opacity="0.35"/>
  </g>
</svg>
